<svg width="140" height="42" viewBox="0 0 140 42" fill="none" xmlns="http://www.w3.org/2000/svg">
<path d="M14.0055 10.28C14.0855 9 14.1655 7.77 14.2455 6.59C14.3455 5.39 14.5955 4.16 14.9955 2.9C15.1955 2.26 15.4955 1.71 15.8955 1.25C16.2955 0.769999 16.8655 0.489999 17.6055 0.409999C18.2455 0.329999 18.8455 0.449999 19.4055 0.77C19.9855 1.07 20.4055 1.52 20.6655 2.12C21.0255 3 21.1955 4.07 21.1755 5.33C21.1755 6.57 21.0455 7.84 20.7855 9.14C20.5255 10.44 20.1755 11.69 19.7355 12.89C19.2955 14.09 18.8355 15.08 18.3555 15.86C17.6155 17.06 16.6655 17.82 15.5055 18.14C14.3655 18.44 13.1655 18.3 11.9055 17.72C11.1255 17.34 10.4655 16.89 9.92555 16.37C9.38555 15.85 8.78555 15.34 8.12555 14.84C8.12555 15.54 8.10555 16.25 8.06555 16.97C8.04555 17.69 8.01555 18.4 7.97555 19.1C7.93555 19.6 7.76555 20.04 7.46555 20.42C7.16555 20.78 6.75555 20.97 6.23555 20.99C5.83555 21.01 5.49555 20.93 5.21555 20.75C4.93555 20.55 4.70555 20.28 4.52555 19.94C4.42555 19.76 4.32555 19.45 4.22555 19.01C4.14555 18.55 4.06555 18.03 3.98555 17.45C3.90555 16.85 3.83555 16.22 3.77555 15.56C3.71555 14.9 3.66555 14.27 3.62555 13.67C3.58555 13.05 3.55555 12.5 3.53555 12.02C3.51555 11.52 3.51555 11.15 3.53555 10.91C3.57555 10.31 3.75555 9.78 4.07555 9.32C4.39555 8.84 4.85555 8.52 5.45555 8.36C5.89555 8.24 6.36555 8.26 6.86555 8.42C7.36555 8.56 7.86555 8.79 8.36555 9.11C8.86555 9.43 9.36555 9.8 9.86555 10.22C10.3655 10.64 10.8555 11.06 11.3355 11.48C11.9955 12.06 12.4955 12.47 12.8355 12.71C13.1955 12.95 13.4455 13.02 13.5855 12.92C13.7455 12.8 13.8455 12.53 13.8855 12.11C13.9255 11.67 13.9655 11.06 14.0055 10.28ZM26.9147 9.05C27.5347 9.09 28.1947 9.12 28.8947 9.14C29.6147 9.14 30.2647 9.23 30.8447 9.41C31.4247 9.59 31.8547 9.92 32.1347 10.4C32.4147 10.86 32.5347 11.34 32.4947 11.84C32.4747 12.34 32.3047 12.79 31.9847 13.19C31.6647 13.57 31.1947 13.76 30.5747 13.76C29.8747 13.76 29.1647 13.72 28.4447 13.64C27.7247 13.54 27.0147 13.48 26.3147 13.46L26.1347 15.11C26.6347 15.23 27.2347 15.31 27.9347 15.35C28.6347 15.37 29.3247 15.42 30.0047 15.5C30.7047 15.56 31.3647 15.67 31.9847 15.83C32.6247 15.99 33.1247 16.25 33.4847 16.61C33.8647 16.97 34.0647 17.47 34.0847 18.11C34.1247 18.75 33.9147 19.58 33.4547 20.6C33.2947 20.94 33.0647 21.21 32.7647 21.41C32.4847 21.61 32.1547 21.72 31.7747 21.74C31.1347 21.78 30.4347 21.79 29.6747 21.77C28.9347 21.73 28.1747 21.65 27.3947 21.53C26.6347 21.39 25.8947 21.19 25.1747 20.93C24.4547 20.67 23.8047 20.34 23.2247 19.94C22.6447 19.52 22.1647 19.02 21.7847 18.44C21.4047 17.84 21.1847 17.14 21.1247 16.34C21.0247 15.28 21.0247 14.24 21.1247 13.22C21.2247 12.18 21.3747 11.15 21.5747 10.13C21.7947 9.11 22.0447 8.1 22.3247 7.1C22.6047 6.1 22.8947 5.1 23.1947 4.1C23.2747 3.84 23.3647 3.63 23.4647 3.47C23.5847 3.31 23.7747 3.18 24.0347 3.08C24.4547 2.92 24.9947 2.77 25.6547 2.63C26.3347 2.47 27.0547 2.36 27.8147 2.3C28.5747 2.22 29.3447 2.2 30.1247 2.24C30.9047 2.26 31.6047 2.38 32.2247 2.6C32.8447 2.82 33.3447 3.15 33.7247 3.59C34.1247 4.01 34.3147 4.57 34.2947 5.27C34.2747 6.01 34.1047 6.56 33.7847 6.92C33.4847 7.28 33.0947 7.53 32.6147 7.67C32.1347 7.81 31.6147 7.88 31.0547 7.88C30.4947 7.86 29.9547 7.84 29.4347 7.82C29.0347 7.8 28.6247 7.78 28.2047 7.76C27.8047 7.72 27.4047 7.67 27.0047 7.61L26.9147 9.05ZM40.9116 12.68C41.1316 12.36 41.3416 12.01 41.5416 11.63C41.7616 11.23 41.9816 10.84 42.2016 10.46C42.4416 10.06 42.6816 9.68 42.9216 9.32C43.1616 8.96 43.4116 8.65 43.6716 8.39C44.1116 7.97 44.5016 7.74 44.8416 7.7C45.2016 7.66 45.5216 7.75 45.8016 7.97C46.1016 8.19 46.3616 8.51 46.5816 8.93C46.8216 9.33 47.0216 9.75 47.1816 10.19C47.3616 10.63 47.5116 11.06 47.6316 11.48C47.7516 11.9 47.8616 12.24 47.9616 12.5C48.1216 12.9 48.2716 13.31 48.4116 13.73C48.5516 14.13 48.7316 14.52 48.9516 14.9C49.1116 14.44 49.2416 13.97 49.3416 13.49C49.4616 12.99 49.5516 12.49 49.6116 11.99C49.6916 11.33 49.7916 10.53 49.9116 9.59C50.0316 8.65 50.1916 7.71 50.3916 6.77C50.6116 5.81 50.9016 4.93 51.2616 4.13C51.6216 3.33 52.0816 2.74 52.6416 2.36C53.1216 2.04 53.6416 1.85 54.2016 1.79C54.7616 1.73 55.2716 1.8 55.7316 2C56.2116 2.2 56.6016 2.53 56.9016 2.99C57.2216 3.43 57.3816 3.99 57.3816 4.67C57.3816 5.13 57.3016 5.73 57.1416 6.47C57.0016 7.21 56.8116 8.02 56.5716 8.9C56.3316 9.76 56.0616 10.66 55.7616 11.6C55.4616 12.54 55.1616 13.44 54.8616 14.3C54.5616 15.16 54.2616 15.95 53.9616 16.67C53.6816 17.39 53.4416 17.97 53.2416 18.41C52.9616 18.99 52.6016 19.56 52.1616 20.12C51.7416 20.68 51.2616 21.12 50.7216 21.44C50.2016 21.76 49.6416 21.89 49.0416 21.83C48.4416 21.77 47.8416 21.41 47.2416 20.75C46.8216 20.29 46.4616 19.76 46.1616 19.16C45.8616 18.54 45.6016 17.91 45.3816 17.27C45.1616 16.61 44.9516 15.95 44.7516 15.29C44.5516 14.63 44.3316 14.02 44.0916 13.46C44.0516 13.56 44.0016 13.65 43.9416 13.73C43.9016 13.79 43.8616 13.86 43.8216 13.94C43.5616 14.4 43.3216 14.88 43.1016 15.38C42.8816 15.88 42.6516 16.38 42.4116 16.88C42.1916 17.36 41.9416 17.84 41.6616 18.32C41.4016 18.78 41.1116 19.22 40.7916 19.64C40.5316 19.98 40.2216 20.24 39.8616 20.42C39.5216 20.6 39.1716 20.7 38.8116 20.72C38.4516 20.72 38.0916 20.64 37.7316 20.48C37.3916 20.32 37.0916 20.07 36.8316 19.73C36.2316 18.99 35.7616 18.02 35.4216 16.82C35.0816 15.62 34.8316 14.35 34.6716 13.01C34.5116 11.67 34.4216 10.35 34.4016 9.05C34.4016 7.75 34.4316 6.64 34.4916 5.72C34.5316 5.12 34.7116 4.61 35.0316 4.19C35.3716 3.77 35.7616 3.47 36.2016 3.29C36.6616 3.11 37.1416 3.08 37.6416 3.2C38.1616 3.3 38.6316 3.57 39.0516 4.01C39.4316 4.43 39.7316 5.01 39.9516 5.75C40.1716 6.49 40.3416 7.28 40.4616 8.12C40.5816 8.96 40.6716 9.79 40.7316 10.61C40.7916 11.43 40.8516 12.12 40.9116 12.68ZM71.5748 10.37C71.2748 10.67 70.9648 10.95 70.6448 11.21C70.3248 11.47 70.0048 11.74 69.6848 12.02C68.9448 12.66 68.3148 13.2 67.7948 13.64C67.2948 14.08 66.7848 14.37 66.2648 14.51C65.7648 14.65 65.2148 14.61 64.6148 14.39C64.0348 14.17 63.3048 13.71 62.4248 13.01L62.0648 16.49C62.0248 16.93 61.9848 17.45 61.9448 18.05C61.9248 18.63 61.8448 19.18 61.7048 19.7C61.5848 20.22 61.3548 20.67 61.0148 21.05C60.6948 21.41 60.2148 21.59 59.5748 21.59C59.0548 21.59 58.6348 21.48 58.3148 21.26C57.9948 21.02 57.7348 20.67 57.5348 20.21C57.4348 19.97 57.3548 19.52 57.2948 18.86C57.2348 18.2 57.1948 17.43 57.1748 16.55C57.1548 15.65 57.1448 14.7 57.1448 13.7C57.1648 12.7 57.1848 11.75 57.2048 10.85C57.2448 9.95 57.2948 9.15 57.3548 8.45C57.4148 7.75 57.4848 7.26 57.5648 6.98C57.7048 6.46 57.9248 6.02 58.2248 5.66C58.5448 5.3 58.9048 5.05 59.3048 4.91C59.7048 4.75 60.1348 4.7 60.5948 4.76C61.0748 4.8 61.5448 4.97 62.0048 5.27C62.3848 5.51 62.7348 5.8 63.0548 6.14C63.3948 6.48 63.7148 6.84 64.0148 7.22C64.3148 7.58 64.6048 7.95 64.8848 8.33C65.1848 8.69 65.5048 9.02 65.8448 9.32C66.3448 8.98 66.8548 8.58 67.3748 8.12C67.8948 7.66 68.4048 7.18 68.9048 6.68C69.4248 6.18 69.9248 5.68 70.4048 5.18C70.8848 4.66 71.3448 4.18 71.7848 3.74C72.1448 3.38 72.5348 3.12 72.9548 2.96C73.3948 2.78 73.8348 2.71 74.2748 2.75C74.7148 2.77 75.1248 2.9 75.5048 3.14C75.9048 3.38 76.2448 3.72 76.5248 4.16C76.7848 4.58 76.9848 5.18 77.1248 5.96C77.2848 6.74 77.4048 7.61 77.4848 8.57C77.5648 9.51 77.5948 10.5 77.5748 11.54C77.5748 12.58 77.5448 13.59 77.4848 14.57C77.4248 15.53 77.3348 16.42 77.2148 17.24C77.0948 18.04 76.9648 18.68 76.8248 19.16C76.5648 20 76.1048 20.6 75.4448 20.96C74.8048 21.3 74.1448 21.43 73.4648 21.35C72.8048 21.25 72.2148 20.95 71.6948 20.45C71.1948 19.95 70.9448 19.29 70.9448 18.47C70.9448 17.31 71.0348 16.16 71.2148 15.02C71.3148 14.28 71.4048 13.53 71.4848 12.77C71.5848 11.99 71.6148 11.19 71.5748 10.37ZM89.5931 16.67C88.8931 16.73 88.1831 16.79 87.4631 16.85C86.7631 16.89 86.0631 16.93 85.3631 16.97C85.1831 16.99 85.0531 17.03 84.9731 17.09C84.9131 17.13 84.8331 17.23 84.7331 17.39C84.3931 18.03 84.0531 18.7 83.7131 19.4C83.3731 20.08 82.9931 20.71 82.5731 21.29C82.2731 21.71 81.9131 21.98 81.4931 22.1C81.0731 22.2 80.6831 22.18 80.3231 22.04C79.9631 21.88 79.6631 21.62 79.4231 21.26C79.1831 20.88 79.0931 20.44 79.1531 19.94C79.1931 19.6 79.2731 19.25 79.3931 18.89C79.5331 18.53 79.6531 18.18 79.7531 17.84C79.5331 17.82 79.3131 17.79 79.0931 17.75C78.8731 17.69 78.6731 17.62 78.4931 17.54C78.3131 17.44 78.1631 17.31 78.0431 17.15C77.9431 16.97 77.8831 16.74 77.8631 16.46C77.8431 15.96 77.9831 15.62 78.2831 15.44C78.5831 15.26 78.9331 15.13 79.3331 15.05C79.7531 14.97 80.1631 14.89 80.5631 14.81C80.9631 14.71 81.2531 14.49 81.4331 14.15C82.2531 12.63 83.0631 11.15 83.8631 9.71C84.6831 8.25 85.6831 6.87 86.8631 5.57C87.1831 5.21 87.5331 4.94 87.9131 4.76C88.3131 4.58 88.7131 4.5 89.1131 4.52C89.5131 4.52 89.9031 4.62 90.2831 4.82C90.6631 5.02 91.0031 5.32 91.3031 5.72C91.6631 6.2 91.9431 6.75 92.1431 7.37C92.3431 7.97 92.5131 8.59 92.6531 9.23C92.7931 9.87 92.9231 10.51 93.0431 11.15C93.1831 11.79 93.3531 12.39 93.5531 12.95C93.8331 12.97 94.1831 12.98 94.6031 12.98C95.0431 12.96 95.4631 12.98 95.8631 13.04C96.2631 13.1 96.6131 13.22 96.9131 13.4C97.2131 13.58 97.3631 13.87 97.3631 14.27C97.4031 15.01 97.0531 15.46 96.3131 15.62C96.0331 15.68 95.6531 15.75 95.1731 15.83C94.6931 15.91 94.3431 16.02 94.1231 16.16C94.1831 16.56 94.2631 17.02 94.3631 17.54C94.4831 18.04 94.5331 18.53 94.5131 19.01C94.5131 19.49 94.4031 19.93 94.1831 20.33C93.9831 20.71 93.6031 20.97 93.0431 21.11C92.6431 21.21 92.2431 21.17 91.8431 20.99C91.4631 20.81 91.1731 20.54 90.9731 20.18C90.6731 19.62 90.4231 19.04 90.2231 18.44C90.0431 17.84 89.8331 17.25 89.5931 16.67ZM86.6831 14C87.0231 13.96 87.3531 13.92 87.6731 13.88C88.0131 13.84 88.3531 13.8 88.6931 13.76C88.5931 13.42 88.5031 13.09 88.4231 12.77C88.3631 12.45 88.2831 12.12 88.1831 11.78H88.0931C87.8531 12.14 87.6131 12.51 87.3731 12.89C87.1331 13.25 86.9031 13.62 86.6831 14ZM107.767 10.28C107.847 9 107.927 7.77 108.007 6.59C108.107 5.39 108.357 4.16 108.757 2.9C108.957 2.26 109.257 1.71 109.657 1.25C110.057 0.769999 110.627 0.489999 111.367 0.409999C112.007 0.329999 112.607 0.449999 113.167 0.77C113.747 1.07 114.167 1.52 114.427 2.12C114.787 3 114.957 4.07 114.937 5.33C114.937 6.57 114.807 7.84 114.547 9.14C114.287 10.44 113.937 11.69 113.497 12.89C113.057 14.09 112.597 15.08 112.117 15.86C111.377 17.06 110.427 17.82 109.267 18.14C108.127 18.44 106.927 18.3 105.667 17.72C104.887 17.34 104.227 16.89 103.687 16.37C103.147 15.85 102.547 15.34 101.887 14.84C101.887 15.54 101.867 16.25 101.827 16.97C101.807 17.69 101.777 18.4 101.737 19.1C101.697 19.6 101.527 20.04 101.227 20.42C100.927 20.78 100.517 20.97 99.9973 20.99C99.5973 21.01 99.2573 20.93 98.9773 20.75C98.6973 20.55 98.4673 20.28 98.2873 19.94C98.1873 19.76 98.0873 19.45 97.9873 19.01C97.9073 18.55 97.8273 18.03 97.7473 17.45C97.6673 16.85 97.5973 16.22 97.5373 15.56C97.4773 14.9 97.4273 14.27 97.3873 13.67C97.3473 13.05 97.3173 12.5 97.2973 12.02C97.2773 11.52 97.2773 11.15 97.2973 10.91C97.3373 10.31 97.5173 9.78 97.8373 9.32C98.1573 8.84 98.6173 8.52 99.2173 8.36C99.6573 8.24 100.127 8.26 100.627 8.42C101.127 8.56 101.627 8.79 102.127 9.11C102.627 9.43 103.127 9.8 103.627 10.22C104.127 10.64 104.617 11.06 105.097 11.48C105.757 12.06 106.257 12.47 106.597 12.71C106.957 12.95 107.207 13.02 107.347 12.92C107.507 12.8 107.607 12.53 107.647 12.11C107.687 11.67 107.727 11.06 107.767 10.28ZM115.816 7.94C115.836 7.44 115.846 7.06 115.846 6.8C115.846 6.52 115.846 6.3 115.846 6.14C115.846 5.96 115.846 5.82 115.846 5.72C115.846 5.62 115.856 5.49 115.876 5.33C115.956 4.67 116.186 4.2 116.566 3.92C116.946 3.64 117.336 3.52 117.736 3.56C118.156 3.58 118.506 3.76 118.786 4.1C119.086 4.42 119.186 4.87 119.086 5.45C119.006 5.91 118.926 6.37 118.846 6.83C118.766 7.27 118.666 7.72 118.546 8.18C118.446 8.52 118.246 8.77 117.946 8.93C117.646 9.09 117.336 9.16 117.016 9.14C116.716 9.1 116.436 8.98 116.176 8.78C115.936 8.58 115.816 8.3 115.816 7.94ZM129.825 7.25C129.705 7.31 129.475 7.41 129.135 7.55C128.795 7.69 128.425 7.85 128.025 8.03C127.645 8.21 127.265 8.41 126.885 8.63C126.505 8.83 126.195 9.05 125.955 9.29C125.735 9.51 125.625 9.74 125.625 9.98C125.645 10.22 125.845 10.44 126.225 10.64C126.745 10.92 127.275 11.18 127.815 11.42C128.355 11.64 128.885 11.87 129.405 12.11C129.945 12.33 130.475 12.57 130.995 12.83C131.515 13.09 132.025 13.4 132.525 13.76C133.085 14.16 133.575 14.63 133.995 15.17C134.415 15.69 134.725 16.25 134.925 16.85C135.125 17.45 135.205 18.07 135.165 18.71C135.125 19.35 134.935 20 134.595 20.66C134.235 21.36 133.755 21.95 133.155 22.43C132.555 22.89 131.905 23.28 131.205 23.6C129.765 24.22 128.245 24.58 126.645 24.68C126.125 24.72 125.635 24.65 125.175 24.47C124.735 24.29 124.345 24.04 124.005 23.72C123.685 23.38 123.435 22.99 123.255 22.55C123.095 22.09 123.045 21.6 123.105 21.08C123.265 19.68 123.735 18.73 124.515 18.23C125.295 17.73 126.355 17.53 127.695 17.63C127.935 17.65 128.205 17.65 128.505 17.63C128.825 17.59 129.085 17.52 129.285 17.42C129.485 17.32 129.565 17.19 129.525 17.03C129.505 16.85 129.255 16.64 128.775 16.4C128.215 16.1 127.625 15.82 127.005 15.56C126.385 15.3 125.775 15.03 125.175 14.75C124.575 14.45 123.985 14.13 123.405 13.79C122.845 13.45 122.335 13.07 121.875 12.65C120.995 11.85 120.505 11 120.405 10.1C120.325 9.18 120.515 8.28 120.975 7.4C121.435 6.52 122.105 5.68 122.985 4.88C123.885 4.08 124.865 3.38 125.925 2.78C127.005 2.18 128.115 1.72 129.255 1.4C130.395 1.06 131.455 0.909999 132.435 0.949999C133.315 0.989999 134.065 1.18 134.685 1.52C135.305 1.84 135.775 2.26 136.095 2.78C136.435 3.28 136.625 3.85 136.665 4.49C136.705 5.11 136.595 5.74 136.335 6.38C136.075 7.02 135.655 7.63 135.075 8.21C134.515 8.79 133.785 9.29 132.885 9.71C132.205 10.03 131.605 10.13 131.085 10.01C130.565 9.89 130.165 9.67 129.885 9.35C129.605 9.01 129.445 8.64 129.405 8.24C129.385 7.82 129.525 7.49 129.825 7.25Z" fill="white"/>
<path d="M7.02246 38.0342H10.7803L9.52344 34.5557C9.46419 34.3779 9.36263 34.0986 9.21875 33.7178C9.08333 33.3285 8.99023 33.0576 8.93945 32.9053H8.87598C8.83366 33.0153 8.74056 33.2734 8.59668 33.6797C8.46126 34.0775 8.36393 34.3695 8.30469 34.5557L7.02246 38.0342ZM4.86426 41.5L8.40625 32.1689H9.40918L12.9385 41.5H12.0498L11.0342 38.6816H6.78125L5.75293 41.5H4.86426ZM13.9795 38.1865V32.1689H14.7793V38.1484C14.7793 39.1048 15.0036 39.8242 15.4521 40.3066C15.9007 40.7891 16.4932 41.0303 17.2295 41.0303C17.9827 41.0303 18.5794 40.7848 19.0195 40.2939C19.4681 39.8031 19.6924 39.0879 19.6924 38.1484V32.1689H20.4922V38.1865C20.4922 39.3037 20.2129 40.1755 19.6543 40.8018C19.0957 41.4196 18.2874 41.7285 17.2295 41.7285C16.1969 41.7285 15.3971 41.4238 14.8301 40.8145C14.263 40.1966 13.9795 39.3206 13.9795 38.1865ZM22.0537 32.8545V32.1689H28.6426V32.8545H25.748V41.5H24.9482V32.8545H22.0537ZM29.3281 36.8408C29.3281 35.3682 29.6709 34.1833 30.3564 33.2861C31.0505 32.389 31.9772 31.9404 33.1367 31.9404C34.3047 31.9404 35.2272 32.3932 35.9043 33.2988C36.5898 34.196 36.9326 35.3809 36.9326 36.8535C36.9326 38.3346 36.5898 39.5195 35.9043 40.4082C35.2188 41.2884 34.2962 41.7285 33.1367 41.7285C31.9688 41.7285 31.042 41.2842 30.3564 40.3955C29.6709 39.5068 29.3281 38.3219 29.3281 36.8408ZM30.1533 36.8408C30.1533 38.1104 30.4199 39.126 30.9531 39.8877C31.4863 40.6494 32.2142 41.0303 33.1367 41.0303C34.0423 41.0303 34.7617 40.6579 35.2949 39.9131C35.8366 39.1598 36.1074 38.14 36.1074 36.8535C36.1074 35.5671 35.8451 34.543 35.3203 33.7812C34.7956 33.0111 34.0677 32.626 33.1367 32.626C32.2227 32.626 31.4948 33.0068 30.9531 33.7686C30.4199 34.5303 30.1533 35.5544 30.1533 36.8408ZM42.4551 39.1641C42.4551 39.7311 42.6455 40.1924 43.0264 40.5479C43.4072 40.8949 43.8939 41.0684 44.4863 41.0684C45.3411 41.0684 46.0902 40.6494 46.7334 39.8115L44.2832 36.5488C43.75 36.8874 43.3099 37.264 42.9629 37.6787C42.6243 38.085 42.4551 38.5801 42.4551 39.1641ZM41.6553 39.1768C41.6553 37.9326 42.3916 36.862 43.8643 35.9648C43.8389 35.931 43.7839 35.859 43.6992 35.749C43.623 35.6305 43.5723 35.5544 43.5469 35.5205C43.5215 35.4867 43.4749 35.4232 43.4072 35.3301C43.3395 35.2285 43.293 35.1566 43.2676 35.1143C43.2507 35.0719 43.2168 35.0085 43.166 34.9238C43.1152 34.8392 43.0814 34.7757 43.0645 34.7334C43.0475 34.6826 43.0221 34.6191 42.9883 34.543C42.9629 34.4668 42.9417 34.3991 42.9248 34.3398C42.9163 34.2806 42.9079 34.2171 42.8994 34.1494C42.891 34.0732 42.8867 33.9971 42.8867 33.9209C42.8867 33.4046 43.0856 32.9645 43.4834 32.6006C43.8812 32.2282 44.4271 32.042 45.1211 32.042C46.2044 32.042 46.9958 32.5498 47.4951 33.5654L46.873 33.8447C46.7207 33.5485 46.488 33.2861 46.1748 33.0576C45.8701 32.8206 45.5358 32.7021 45.1719 32.7021C44.7233 32.7021 44.3636 32.8249 44.0928 33.0703C43.8304 33.3073 43.6992 33.5951 43.6992 33.9336C43.6992 34.2721 43.9404 34.7969 44.4229 35.5078C44.9053 36.2188 45.6797 37.2682 46.7461 38.6562C46.9238 38.8763 47.055 39.0456 47.1396 39.1641C47.4359 38.5885 47.639 37.9368 47.749 37.209L48.4727 37.3359C48.3457 38.2415 48.0749 39.0625 47.6602 39.7988L48.9678 41.5H48.0283L47.1904 40.4209C46.4795 41.2926 45.5654 41.7285 44.4482 41.7285C43.5765 41.7285 42.891 41.4873 42.3916 41.0049C41.9007 40.514 41.6553 39.9046 41.6553 39.1768ZM52.332 32.8545V32.1689H58.9209V32.8545H56.0264V41.5H55.2266V32.8545H52.332ZM61.2822 36.6885H63.9863C64.6465 36.6885 65.1543 36.515 65.5098 36.168C65.8737 35.8125 66.0557 35.3428 66.0557 34.7588C66.0557 34.2002 65.8652 33.7432 65.4844 33.3877C65.112 33.0322 64.5745 32.8545 63.8721 32.8545H61.2822V36.6885ZM60.4824 41.5V32.1689H64.0752C64.9723 32.1689 65.6621 32.4144 66.1445 32.9053C66.6354 33.3877 66.8809 33.9886 66.8809 34.708C66.8809 35.3936 66.7031 35.9395 66.3477 36.3457C66.0007 36.7435 65.6156 36.9889 65.1924 37.082C65.5479 37.2513 65.8145 37.4798 65.9922 37.7676C66.1699 38.0553 66.3138 38.4404 66.4238 38.9229C66.4323 38.9736 66.4619 39.1006 66.5127 39.3037C66.5635 39.5068 66.5931 39.6296 66.6016 39.6719C66.61 39.7142 66.6354 39.8158 66.6777 39.9766C66.7201 40.1374 66.7497 40.2432 66.7666 40.2939C66.792 40.3447 66.8258 40.4378 66.8682 40.5732C66.9105 40.7002 66.9486 40.8018 66.9824 40.8779C67.0247 40.9541 67.0713 41.0514 67.1221 41.1699C67.1813 41.2799 67.2448 41.39 67.3125 41.5H66.4111C66.2757 41.2461 66.153 40.9753 66.043 40.6875C65.9414 40.3913 65.8652 40.1458 65.8145 39.9512C65.7637 39.7565 65.6875 39.4307 65.5859 38.9736C65.4759 38.4912 65.2982 38.1061 65.0527 37.8184C64.8073 37.5221 64.4222 37.374 63.8975 37.374H61.2822V41.5H60.4824ZM68.9121 38.1865V32.1689H69.7119V38.1484C69.7119 39.1048 69.9362 39.8242 70.3848 40.3066C70.8333 40.7891 71.4258 41.0303 72.1621 41.0303C72.9154 41.0303 73.512 40.7848 73.9521 40.2939C74.4007 39.8031 74.625 39.0879 74.625 38.1484V32.1689H75.4248V38.1865C75.4248 39.3037 75.1455 40.1755 74.5869 40.8018C74.0283 41.4196 73.2201 41.7285 72.1621 41.7285C71.1296 41.7285 70.3298 41.4238 69.7627 40.8145C69.1956 40.1966 68.9121 39.3206 68.9121 38.1865ZM77.4941 36.8408C77.4941 35.3174 77.8581 34.1198 78.5859 33.248C79.3138 32.3763 80.2575 31.9404 81.417 31.9404C82.1364 31.9404 82.7415 32.1393 83.2324 32.5371C83.7318 32.9264 84.0999 33.3835 84.3369 33.9082L83.6514 34.1621C83.1097 33.138 82.3607 32.626 81.4043 32.626C80.4648 32.626 79.7158 33.0111 79.1572 33.7812C78.5986 34.5514 78.3193 35.5713 78.3193 36.8408C78.3193 38.1357 78.6029 39.1598 79.1699 39.9131C79.737 40.6579 80.4818 41.0303 81.4043 41.0303C81.9883 41.0303 82.4876 40.8737 82.9023 40.5605C83.3171 40.2474 83.6344 39.8538 83.8545 39.3799L84.5781 39.6211C84.2988 40.222 83.8968 40.7256 83.3721 41.1318C82.8558 41.5296 82.2041 41.7285 81.417 41.7285C80.2575 41.7285 79.3138 41.2969 78.5859 40.4336C77.8581 39.5618 77.4941 38.3643 77.4941 36.8408ZM86.3682 41.5V32.1689H87.168V37.374H87.1934L91.6875 32.1689H92.7666L89.2373 36.1934L92.9951 41.5H91.9795L88.7041 36.7773L87.168 38.5293V41.5H86.3682ZM97.6035 41.5V32.1689H101.095C101.975 32.1689 102.673 32.4144 103.189 32.9053C103.714 33.3962 103.977 34.0479 103.977 34.8604C103.977 35.6982 103.71 36.3584 103.177 36.8408C102.644 37.3148 101.95 37.5518 101.095 37.5518H98.4033V41.5H97.6035ZM98.4033 36.8789H100.942C101.628 36.8789 102.165 36.7096 102.555 36.3711C102.952 36.0326 103.151 35.529 103.151 34.8604C103.151 34.2171 102.957 33.722 102.567 33.375C102.178 33.028 101.628 32.8545 100.917 32.8545H98.4033V36.8789ZM105.767 38.0342H109.524L108.268 34.5557C108.208 34.3779 108.107 34.0986 107.963 33.7178C107.827 33.3285 107.734 33.0576 107.684 32.9053H107.62C107.578 33.0153 107.485 33.2734 107.341 33.6797C107.205 34.0775 107.108 34.3695 107.049 34.5557L105.767 38.0342ZM103.608 41.5L107.15 32.1689H108.153L111.683 41.5H110.794L109.778 38.6816H105.525L104.497 41.5H103.608ZM113.854 36.6885H116.558C117.218 36.6885 117.726 36.515 118.081 36.168C118.445 35.8125 118.627 35.3428 118.627 34.7588C118.627 34.2002 118.437 33.7432 118.056 33.3877C117.683 33.0322 117.146 32.8545 116.443 32.8545H113.854V36.6885ZM113.054 41.5V32.1689H116.646C117.544 32.1689 118.233 32.4144 118.716 32.9053C119.207 33.3877 119.452 33.9886 119.452 34.708C119.452 35.3936 119.274 35.9395 118.919 36.3457C118.572 36.7435 118.187 36.9889 117.764 37.082C118.119 37.2513 118.386 37.4798 118.563 37.7676C118.741 38.0553 118.885 38.4404 118.995 38.9229C119.004 38.9736 119.033 39.1006 119.084 39.3037C119.135 39.5068 119.164 39.6296 119.173 39.6719C119.181 39.7142 119.207 39.8158 119.249 39.9766C119.291 40.1374 119.321 40.2432 119.338 40.2939C119.363 40.3447 119.397 40.4378 119.439 40.5732C119.482 40.7002 119.52 40.8018 119.554 40.8779C119.596 40.9541 119.643 41.0514 119.693 41.1699C119.753 41.2799 119.816 41.39 119.884 41.5H118.982C118.847 41.2461 118.724 40.9753 118.614 40.6875C118.513 40.3913 118.437 40.1458 118.386 39.9512C118.335 39.7565 118.259 39.4307 118.157 38.9736C118.047 38.4912 117.869 38.1061 117.624 37.8184C117.379 37.5221 116.993 37.374 116.469 37.374H113.854V41.5H113.054ZM120.201 32.8545V32.1689H126.79V32.8545H123.896V41.5H123.096V32.8545H120.201ZM127.438 39.8496L128.187 39.5703C128.449 40.0189 128.809 40.3743 129.266 40.6367C129.723 40.8991 130.252 41.0303 130.853 41.0303C131.547 41.0303 132.109 40.861 132.541 40.5225C132.981 40.1839 133.201 39.7184 133.201 39.126C133.201 38.889 133.15 38.6732 133.049 38.4785C132.956 38.2754 132.841 38.1104 132.706 37.9834C132.579 37.848 132.393 37.7168 132.147 37.5898C131.91 37.4629 131.695 37.3656 131.5 37.2979C131.314 37.2217 131.068 37.1328 130.764 37.0312C130.484 36.9382 130.273 36.8704 130.129 36.8281C129.985 36.7773 129.786 36.7012 129.532 36.5996C129.278 36.4896 129.079 36.3923 128.936 36.3076C128.8 36.223 128.644 36.113 128.466 35.9775C128.288 35.8337 128.153 35.6898 128.06 35.5459C127.966 35.3936 127.886 35.2158 127.818 35.0127C127.751 34.8011 127.717 34.5768 127.717 34.3398C127.717 33.612 127.992 33.0322 128.542 32.6006C129.101 32.1605 129.85 31.9404 130.789 31.9404C131.483 31.9404 132.092 32.1012 132.617 32.4229C133.15 32.736 133.531 33.1296 133.76 33.6035L133.074 33.8447C132.558 33.0322 131.788 32.626 130.764 32.626C130.07 32.626 129.524 32.7826 129.126 33.0957C128.737 33.4089 128.542 33.8236 128.542 34.3398C128.542 34.7207 128.682 35.0508 128.961 35.3301C129.249 35.6094 129.524 35.8083 129.786 35.9268C130.049 36.0368 130.48 36.1891 131.081 36.3838C131.14 36.4092 131.187 36.4261 131.221 36.4346C131.551 36.5446 131.83 36.6462 132.059 36.7393C132.287 36.8239 132.537 36.9424 132.808 37.0947C133.078 37.2471 133.294 37.4121 133.455 37.5898C133.616 37.7591 133.751 37.9749 133.861 38.2373C133.971 38.4912 134.026 38.7747 134.026 39.0879C134.026 39.9173 133.739 40.5648 133.163 41.0303C132.588 41.4958 131.809 41.7285 130.827 41.7285C130.023 41.7285 129.333 41.5592 128.758 41.2207C128.191 40.8822 127.751 40.4251 127.438 39.8496Z" fill="white"/>
</svg>
