<svg width="41" height="16" viewBox="0 0 41 16" fill="none" xmlns="http://www.w3.org/2000/svg">
<g clip-path="url(#clip0_1_329)">
<path fill-rule="evenodd" clip-rule="evenodd" d="M3.76667 9.00952C2.69048 9.00952 1.44286 9.5238 0.766667 10.0571L1.38571 11.3524C1.92857 10.8571 2.80476 10.4381 3.59524 10.4381C4.34762 10.4381 4.75714 10.6857 4.75714 11.1905C4.75714 11.5333 4.48095 11.7048 3.96667 11.7714C2.02381 12.019 0.5 12.5524 0.5 14.0476C0.5 15.2286 1.34762 15.9524 2.6619 15.9524C3.60476 15.9524 4.44286 15.4286 4.84286 14.7429V15.7619H6.59524V11.4857C6.59524 9.7238 5.36667 9.00952 3.76667 9.00952ZM3.10952 14.5809C2.61429 14.5809 2.36667 14.3429 2.36667 13.9429C2.36667 13.2 3.19524 12.9524 4.70952 12.7905C4.71905 13.7809 4.04286 14.5809 3.10952 14.5809ZM23.119 10.3048V9.2H21.3667V15.7619H23.2429V12.6C23.2429 11.0952 24.1476 10.6571 24.7857 10.6571C25.0333 10.6571 25.3667 10.7333 25.5857 10.8952L25.9286 9.1619C25.6429 9.03809 25.3381 9.00952 25.0905 9.00952C24.1286 9.00952 23.519 9.43809 23.119 10.3048ZM34.6333 9.00952C33.6429 9.00952 32.9 9.59999 32.5095 10.1619C32.1476 9.42857 31.3952 9.00952 30.481 9.00952C29.4905 9.00952 28.8048 9.5619 28.481 10.1905V9.2H26.6714V15.7619H28.5476V12.3809C28.5476 11.1714 29.1857 10.5905 29.7762 10.5905C30.3095 10.5905 30.8048 10.9333 30.8048 11.8286V15.7619H32.6905V12.3809C32.6905 11.1524 33.3095 10.5905 33.9286 10.5905C34.4238 10.5905 34.9476 10.9524 34.9476 11.819V15.7619H36.8238V11.2286C36.8238 9.75238 35.8333 9.00952 34.6333 9.00952ZM13.2238 8.71428V9.2H10.3762V8.53333C10.3762 7.66666 10.8714 7.41904 11.3 7.41904C11.5476 7.41904 11.8714 7.47619 12.1381 7.62857L12.719 6.30476C12.3762 6.10476 11.8143 5.92381 11.0619 5.92381C9.86191 5.92381 8.5 6.6 8.5 8.7238V9.20952H7.41429V10.6571H8.5V15.7619H10.3762V10.6476H13.2238V15.7619H15.1V10.6476H16.8048V9.2H15.1V8.53333C15.1 7.66666 15.5952 7.41904 16.0238 7.41904C16.5 7.41904 16.8619 7.62857 16.8619 7.62857L17.4429 6.30476C17.4429 6.30476 16.8524 5.92381 15.7857 5.92381C14.5952 5.91428 13.2238 6.59047 13.2238 8.71428ZM17.919 9.2H19.7952V15.7619H17.919V9.2Z" fill="black"/>
<path fill-rule="evenodd" clip-rule="evenodd" d="M28.8524 0.0476074C23.7857 0.0476074 19.2714 3.56189 17.9952 8.0857H19.8333C20.9 4.71427 24.5286 1.76189 28.8524 1.76189C34.1095 1.76189 38.6429 5.76189 38.6429 11.9905C38.6429 13.3905 38.4619 14.6476 38.119 15.7619H39.9L39.919 15.7048C40.2143 14.5524 40.3571 13.3048 40.3571 11.9905C40.3571 5.04761 35.3 0.0476074 28.8524 0.0476074Z" fill="#4B49F6"/>
</g>
<defs>
<clipPath id="clip0_1_329">
<rect width="40" height="15.9048" fill="white" transform="translate(0.5 0.0476074)"/>
</clipPath>
</defs>
</svg>
