<svg width="161" height="55" viewBox="0 0 161 55" fill="none" xmlns="http://www.w3.org/2000/svg">
<g clip-path="url(#clip0_1_927)">
<path d="M14.7165 37.318C9.29567 37.318 4.89643 32.9257 4.89643 27.5039C4.89643 22.0723 9.29567 17.6833 14.7165 17.6833C20.1421 17.6833 24.5359 22.0723 24.5359 27.5039C24.5359 32.9257 20.1421 37.318 14.7165 37.318ZM14.7165 12.7798C6.58998 12.7798 0 19.3714 0 27.5039C0 35.6302 6.58998 42.2198 14.7165 42.2198C22.8466 42.2198 29.4469 35.6302 29.4469 27.5039C29.4469 19.3714 22.8466 12.7798 14.7165 12.7798Z" fill="#CC0000"/>
<path d="M14.7179 22.459C11.9323 22.459 9.67529 24.7105 9.67529 27.5046C9.67529 30.2894 11.9322 32.5476 14.7179 32.5476C17.5061 32.5476 19.768 30.2893 19.768 27.5046C19.768 24.7106 17.5061 22.459 14.7179 22.459Z" fill="#CC0000"/>
<path d="M42.3116 20.2794H35.4469V16.043H54.2135V20.2794H47.3487V38.9501H42.3116V20.2794Z" fill="#CC0000"/>
<path d="M52.0289 38.9501H57.1275L58.9255 33.8476H67.4914L69.2244 38.9501H74.4527L65.8868 16.043H60.7229L52.0289 38.9501ZM63.2247 21.6874H63.2878L66.1739 30.0942H60.243L63.2247 21.6874Z" fill="#CC0000"/>
<path d="M76.4469 38.9527H81.4863V30.0022H86.5198C89.0567 30.0022 89.9852 31.0601 90.3373 33.465C90.597 35.2943 90.5316 37.5084 91.1418 38.953H96.1757C95.2785 37.6702 95.3116 34.9718 95.2141 33.5287C95.0529 31.2155 94.35 28.8122 91.8778 28.1711V28.1077C94.4154 27.0817 95.505 25.063 95.505 22.3645C95.505 18.9024 92.9044 16.0469 88.7993 16.0469H76.4472L76.4469 38.9527ZM81.4863 19.9596H87.0051C89.2473 19.9596 90.4673 20.9224 90.4673 23.1337C90.4673 25.4424 89.2473 26.4066 87.0051 26.4066H81.4863V19.9596Z" fill="#CC0000"/>
<path d="M115.517 36.3497C113.751 38.6308 111.445 39.5 109.23 39.5C102.142 39.5 97.9703 34.198 97.9703 27.5888C97.9703 20.791 102.142 15.5 109.23 15.5C113.913 15.5 118.342 18.387 118.889 23.5799H114.074C113.495 21.043 111.603 19.7326 109.23 19.7326C104.707 19.7326 103.004 23.5799 103.004 27.5888C103.004 31.4085 104.707 35.2565 109.23 35.2565C112.504 35.2565 114.392 33.4932 114.683 30.3153H109.616V26.5661H119.238V38.9497H116.028L115.517 36.3497Z" fill="#CC0000"/>
<path d="M122.673 16.043H139.799V20.2794H127.71V25.1855H138.807V29.103H127.71V34.7136H140.058V38.9501H122.673V16.043Z" fill="#CC0000"/>
<path d="M149.167 20.2794H142.302V16.043H161.072V20.2794H154.203V38.9501H149.167V20.2794Z" fill="#CC0000"/>
</g>
<defs>
<clipPath id="clip0_1_927">
<rect width="161" height="54" fill="white" transform="translate(0 0.5)"/>
</clipPath>
</defs>
</svg>
