<svg width="170" height="55" viewBox="0 0 170 55" fill="none" xmlns="http://www.w3.org/2000/svg">
<path d="M104.016 28.5868C104.016 24.3403 102.198 20.5884 96.0502 20.5884C92.8962 20.5884 90.3906 21.4873 89.0321 22.2742L90.0278 25.6811C91.2785 24.8964 93.2742 24.2502 95.1579 24.2502C98.2702 24.2458 98.7801 26.0064 98.7801 27.1383V27.4109C91.9862 27.3999 87.6914 29.7473 87.6914 34.5279C87.6914 37.449 89.8718 40.1877 93.6831 40.1877C96.0085 40.1877 97.9735 39.2491 99.1472 37.7677H99.2615C99.2615 37.7677 100.035 41.0053 104.315 39.7679C104.097 38.4117 104.016 36.983 104.016 35.2466V28.5868ZM98.9473 33.0707C98.9473 33.4135 98.9187 33.7696 98.8176 34.0751C98.4262 35.3829 97.0768 36.4775 95.3975 36.4775C93.9799 36.4775 92.8676 35.6753 92.8676 33.9938C92.8676 31.4222 95.7073 30.7144 98.9473 30.732" fill="#0071CE"/>
<path d="M0 14.811C0 14.811 4.43766 32.9663 5.14324 35.9072C5.97406 39.3448 7.46209 40.6152 11.7569 39.769L14.5308 28.511C15.2319 25.7218 15.7088 23.7216 16.1617 20.8796H16.2385C16.5529 23.7502 17.0057 25.7218 17.5793 28.5198C17.5793 28.5198 18.7113 33.6345 19.2982 36.3138C19.8696 38.9931 21.4785 40.6833 25.6921 39.769L32.2948 14.811H26.9646L24.6986 25.6075C24.0985 28.7352 23.5534 31.1991 23.1292 34.0653H23.0523C22.6699 31.2299 22.1841 28.8671 21.5599 25.8031L19.2125 14.811H13.6516L11.1459 25.5217C10.4315 28.7923 9.76335 31.4145 9.34352 34.1905H9.27101C8.83803 31.5859 8.25118 28.2692 7.62911 25.1217C7.62911 25.1217 6.14108 17.453 5.6158 14.811" fill="#0071CE"/>
<path d="M47.149 28.5868C47.149 24.3403 45.3268 20.5884 39.1791 20.5884C36.0339 20.5884 33.5238 21.4873 32.1655 22.2742L33.1611 25.6811C34.4074 24.8964 36.401 24.2502 38.2912 24.2502C41.4035 24.2458 41.9134 26.0064 41.9134 27.1383V27.4109C35.1195 27.3999 30.8203 29.7473 30.8203 34.5279C30.8203 37.449 33.0095 40.1877 36.8032 40.1877C39.1505 40.1877 41.098 39.2491 42.2717 37.7677H42.3903C42.3903 37.7677 43.1684 41.0053 47.4435 39.7679C47.2237 38.4117 47.149 36.983 47.149 35.2466V28.5868ZM42.0761 33.0707C42.0761 33.4135 42.0476 33.7696 41.9508 34.0751C41.5551 35.3829 40.2056 36.4775 38.522 36.4775C37.113 36.4775 35.9965 35.6753 35.9965 33.9938C35.9965 31.4222 38.8362 30.7144 42.0761 30.732" fill="#0071CE"/>
<path d="M49.9141 14.811V39.7602H54.9869V34.4697V14.811H49.9141Z" fill="#0071CE"/>
<path d="M119.582 14.811V33.219C119.582 35.7599 120.059 37.5315 121.085 38.6173C121.987 39.569 123.461 40.1888 125.218 40.1888C126.725 40.1888 128.2 39.8987 128.897 39.6459L128.835 35.683C128.314 35.8039 127.719 35.9072 126.901 35.9072C125.169 35.9072 124.598 34.8104 124.598 32.5289V25.4822H129.016V20.7148H124.598V14.811" fill="#0071CE"/>
<path d="M106.473 21.0216V39.7681H111.717V30.1674C111.717 29.6509 111.75 29.2047 111.831 28.7914C112.222 26.7671 113.759 25.4857 115.972 25.4857C116.59 25.4857 117.01 25.5538 117.476 25.6264V20.7117C117.084 20.6414 116.818 20.604 116.337 20.604C114.374 20.604 112.15 21.8503 111.211 24.5647H111.082V21.0216" fill="#0071CE"/>
<path d="M57.9336 21.0216V39.7681H63.0438V28.7651C63.0438 28.2485 63.1009 27.721 63.2834 27.2441C63.6988 26.1297 64.7297 24.8395 66.3847 24.8395C68.442 24.8395 69.4135 26.5759 69.4135 29.0816V39.7681H74.5107V28.6332C74.5107 28.1474 74.5788 27.5518 74.7216 27.121C75.1305 25.8572 76.247 24.8395 77.79 24.8395C79.8693 24.8395 80.876 26.5385 80.876 29.4926V39.7681H85.9686V28.7145C85.9686 22.9075 83.0145 20.604 79.6604 20.604C78.1857 20.604 77.012 20.9667 75.9568 21.6173C75.0644 22.1646 74.2821 22.936 73.5808 23.9449H73.504C72.6973 21.9272 70.8027 20.604 68.3277 20.604C65.1539 20.604 63.712 22.2063 62.8636 23.5603H62.7866V21.0216" fill="#0071CE"/>
<path d="M153.886 22.6935C154.573 22.6935 155.151 22.3353 155.226 21.8747L155.906 14.1685C155.906 13.4054 155.008 12.7808 153.886 12.7808C152.759 12.7808 151.866 13.4054 151.866 14.1685L152.553 21.8747C152.625 22.3353 153.2 22.6935 153.886 22.6935Z" fill="#FFC220"/>
<path d="M149.72 25.1016C150.06 24.4996 150.041 23.8313 149.674 23.5333L143.322 19.0917C142.661 18.7064 141.672 19.1654 141.106 20.1377C140.542 21.1085 140.656 22.1982 141.304 22.576L148.335 25.8361C148.786 26.0047 149.374 25.6916 149.72 25.0956" fill="#FFC220"/>
<path d="M158.07 25.0933C158.429 25.6894 159.018 26.0024 159.456 25.8429L166.488 22.5738C167.141 22.1885 167.239 21.1093 166.686 20.1385C166.122 19.1662 165.127 18.7101 164.468 19.0879L158.115 23.525C157.763 23.8275 157.737 24.4988 158.077 25.0994" fill="#FFC220"/>
<path d="M153.886 32.3125C154.573 32.3125 155.151 32.6707 155.226 33.1313L155.906 40.8375C155.906 41.6006 155.008 42.2192 153.886 42.2192C152.759 42.2192 151.866 41.6006 151.866 40.8375L152.553 33.1313C152.625 32.6707 153.2 32.3125 153.886 32.3125Z" fill="#FFC220"/>
<path d="M158.07 29.9144C158.429 29.3169 159.018 28.9978 159.456 29.1709L166.488 32.434C167.141 32.8118 167.239 33.9 166.686 34.8723C166.122 35.8371 165.127 36.2962 164.468 35.9184L158.115 31.4753C157.763 31.1757 157.737 30.5075 158.077 29.9144" fill="#FFC220"/>
<path d="M149.72 29.908C150.06 30.5086 150.041 31.1753 149.674 31.4764L143.322 35.912C142.661 36.2973 141.672 35.8367 141.106 34.8719C140.542 33.9011 140.656 32.8114 141.304 32.4336L148.335 29.1705C148.786 28.9989 149.374 29.315 149.72 29.908Z" fill="#FFC220"/>
<path d="M168.543 35.2373H168.63C168.749 35.2373 168.797 35.2749 168.811 35.3697C168.836 35.4751 168.85 35.5458 168.875 35.5759H169.101C169.082 35.5534 169.056 35.4962 169.042 35.3637C169.017 35.2493 168.958 35.1846 168.875 35.162V35.141C168.99 35.1154 169.056 35.0386 169.056 34.9438C169.056 34.858 169.017 34.7963 168.978 34.7572C168.902 34.721 168.83 34.6924 168.671 34.6924C168.529 34.6924 168.425 34.7045 168.342 34.724V35.5759H168.543V35.2373ZM168.549 34.849L168.651 34.8354C168.771 34.8354 168.836 34.8911 168.836 34.9694C168.836 35.0567 168.749 35.0973 168.638 35.0973H168.549V34.849ZM168.677 34.271C168.183 34.271 167.792 34.6563 167.792 35.1289C167.792 35.6136 168.183 35.9989 168.677 35.9989C169.176 35.9989 169.556 35.6136 169.556 35.1289C169.556 34.6563 169.176 34.271 168.677 34.271ZM168.677 34.4441C169.056 34.4441 169.337 34.7511 169.337 35.1289C169.337 35.5097 169.056 35.8258 168.677 35.8198C168.297 35.8198 168.01 35.5097 168.01 35.1289C168.01 34.7511 168.297 34.4441 168.671 34.4441" fill="#FFC220"/>
</svg>
