<svg width="130" height="55" viewBox="0 0 130 55" fill="none" xmlns="http://www.w3.org/2000/svg">
<g clip-path="url(#clip0_1_940)">
<g clip-path="url(#clip1_1_940)">
<path d="M80.1506 46.1867C72.8373 51.573 62.2371 54.4467 53.1105 54.4467C40.3136 54.4467 28.793 49.7173 20.0773 41.8514C19.3925 41.2329 20.0061 40.3899 20.8278 40.8716C30.2338 46.34 41.8639 49.6298 53.8775 49.6298C61.9796 49.6298 70.8926 47.9548 79.0879 44.4789C80.3259 43.9534 81.3613 45.289 80.1506 46.1867Z" fill="#FF9900"/>
<path d="M83.191 42.7107C82.2597 41.5174 77.0116 42.1469 74.656 42.4261C73.9384 42.5137 73.8288 41.8896 74.4752 41.4408C78.6551 38.5013 85.5137 39.3498 86.3135 40.3351C87.1133 41.3258 86.1054 48.1955 82.1775 51.4743C81.5749 51.9779 80.9997 51.7097 81.2681 51.0419C82.1501 48.8414 84.1277 43.9095 83.191 42.7107Z" fill="#FF9900"/>
<path d="M74.8204 20.6898V17.8324C74.8204 17.4 75.1491 17.1099 75.5435 17.1099H88.3459C88.7568 17.1099 89.0855 17.4055 89.0855 17.8324V20.2792C89.08 20.6898 88.7349 21.2262 88.1213 22.0746L81.4873 31.5389C83.9525 31.4787 86.5546 31.8455 88.7897 33.1044C89.2937 33.3891 89.4306 33.8051 89.469 34.2156V37.2646C89.469 37.6806 89.0088 38.1677 88.5267 37.916C84.5879 35.8523 79.3563 35.6279 75.0012 37.9379C74.5574 38.1787 74.0918 37.697 74.0918 37.281V34.3853C74.0918 33.92 74.0973 33.1263 74.5629 32.4202L82.2488 21.4068H75.5599C75.1491 21.4068 74.8204 21.1167 74.8204 20.6898Z" fill="#221F1F"/>
<path d="M28.1191 38.5181H24.2242C23.8517 38.4908 23.5558 38.2116 23.5284 37.8558V17.8817C23.5284 17.4821 23.8626 17.1647 24.2789 17.1647H27.911C28.289 17.1811 28.5902 17.4712 28.6176 17.8325V20.4435H28.6889C29.6366 17.92 31.417 16.7432 33.8164 16.7432C36.2542 16.7432 37.7771 17.92 38.8727 20.4435C39.815 17.92 41.9569 16.7432 44.2523 16.7432C45.8848 16.7432 47.6706 17.4164 48.7608 18.9272C49.9934 20.6077 49.7414 23.049 49.7414 25.1893L49.7359 37.7956C49.7359 38.1952 49.4017 38.5181 48.9854 38.5181H45.0959C44.707 38.4908 44.3947 38.1787 44.3947 37.7956V27.2092C44.3947 26.3662 44.4714 24.2642 44.2851 23.465C43.9948 22.124 43.1238 21.7463 41.9953 21.7463C41.053 21.7463 40.067 22.3758 39.6671 23.3829C39.2672 24.3901 39.3055 26.0761 39.3055 27.2092V37.7956C39.3055 38.1952 38.9713 38.5181 38.555 38.5181H34.6655C34.2711 38.4908 33.9643 38.1787 33.9643 37.7956L33.9588 27.2092C33.9588 24.9813 34.3259 21.7025 31.5594 21.7025C28.7601 21.7025 28.8696 24.8992 28.8696 27.2092V37.7956C28.8696 38.1952 28.5355 38.5181 28.1191 38.5181Z" fill="#221F1F"/>
<path d="M100.107 16.7432C105.887 16.7432 109.015 21.7025 109.015 28.0083C109.015 34.1007 105.558 38.9341 100.107 38.9341C94.4321 38.9341 91.3424 33.9748 91.3424 27.7949C91.3424 21.5766 94.4704 16.7432 100.107 16.7432ZM100.14 20.8212C97.2698 20.8212 97.089 24.7295 97.089 27.1654C97.089 29.6067 97.0506 34.8178 100.107 34.8178C103.126 34.8178 103.268 30.6139 103.268 28.0521C103.268 26.3662 103.197 24.3518 102.688 22.7534C102.249 21.3631 101.378 20.8212 100.14 20.8212Z" fill="#221F1F"/>
<path d="M116.509 38.5181H112.631C112.242 38.4908 111.929 38.1787 111.929 37.7956L111.924 17.816C111.957 17.4493 112.28 17.1647 112.674 17.1647H116.284C116.624 17.1811 116.903 17.411 116.98 17.723V20.7774H117.051C118.142 18.0459 119.67 16.7432 122.36 16.7432C124.107 16.7432 125.811 17.3727 126.907 19.0969C127.925 20.6953 127.925 23.3829 127.925 25.3152V37.8886C127.882 38.239 127.558 38.5181 127.175 38.5181H123.269C122.913 38.4908 122.617 38.228 122.579 37.8886V27.0395C122.579 24.8554 122.831 21.6587 120.141 21.6587C119.193 21.6587 118.322 22.2936 117.89 23.257C117.342 24.4777 117.271 25.6929 117.271 27.0395V37.7956C117.265 38.1952 116.925 38.5181 116.509 38.5181Z" fill="#221F1F"/>
<path d="M64.6145 28.9769V28.1339C61.7988 28.1339 58.8241 28.7361 58.8241 32.0532C58.8241 33.7337 59.6952 34.8722 61.1907 34.8722C62.2863 34.8722 63.2669 34.199 63.8859 33.1042C64.6529 31.7576 64.6145 30.4932 64.6145 28.9769ZM68.5424 38.4631C68.2849 38.693 67.9124 38.7094 67.622 38.5561C66.3292 37.4833 66.0991 36.9851 65.387 35.9615C63.2505 38.1401 61.7385 38.7915 58.9666 38.7915C55.6906 38.7915 53.1378 36.7717 53.1378 32.7265C53.1378 29.5681 54.8525 27.4169 57.2903 26.3659C59.4048 25.4353 62.3575 25.2711 64.6145 25.0138V24.5102C64.6145 23.5852 64.6858 22.4904 64.1434 21.6912C63.6668 20.9741 62.7574 20.6785 61.9576 20.6785C60.4731 20.6785 59.1473 21.4394 58.8241 23.0159C58.7584 23.3662 58.5009 23.7111 58.1503 23.7275L54.3704 23.3224C54.0527 23.2513 53.7021 22.994 53.7897 22.5068C54.6607 17.9307 58.7967 16.5513 62.5 16.5513C64.3954 16.5513 66.8715 17.0549 68.3671 18.489C70.2625 20.2571 70.0817 22.6163 70.0817 25.1835V31.2485C70.0817 33.0713 70.8377 33.8705 71.5499 34.8558C71.8019 35.2061 71.8566 35.6276 71.5389 35.8904C70.7446 36.5527 69.3312 37.7843 68.5533 38.474L68.5424 38.4631Z" fill="#221F1F"/>
<path d="M13.5528 28.9769V28.1339C10.737 28.1339 7.76236 28.7361 7.76236 32.0532C7.76236 33.7337 8.63339 34.8722 10.1289 34.8722C11.2246 34.8722 12.2051 34.199 12.8242 33.1042C13.5911 31.7576 13.5528 30.4932 13.5528 28.9769ZM17.4806 38.4631C17.2231 38.693 16.8506 38.7094 16.5603 38.5561C15.2674 37.4833 15.0373 36.9851 14.3252 35.9615C12.1887 38.1401 10.6767 38.7915 7.9048 38.7915C4.62886 38.7915 2.07605 36.7717 2.07605 32.7265C2.07605 29.5681 3.79071 27.4169 6.22848 26.3659C8.34305 25.4353 11.2958 25.2711 13.5528 25.0138V24.5102C13.5528 23.5852 13.624 22.4904 13.0816 21.6912C12.605 20.9741 11.6957 20.6785 10.8959 20.6785C9.41129 20.6785 8.08558 21.4394 7.76236 23.0159C7.69663 23.3662 7.43915 23.7111 7.08855 23.7275L3.30863 23.3224C2.9909 23.2513 2.6403 22.994 2.72795 22.5068C3.59897 17.9307 7.73497 16.5513 11.4382 16.5513C13.3336 16.5513 15.8098 17.0549 17.3053 18.489C19.2007 20.2571 19.02 22.6163 19.02 25.1835V31.2485C19.02 33.0713 19.7759 33.8705 20.4881 34.8558C20.7401 35.2061 20.7949 35.6276 20.4771 35.8904C19.6828 36.5527 18.2695 37.7843 17.4916 38.474L17.4806 38.4631Z" fill="#221F1F"/>
</g>
</g>
<defs>
<clipPath id="clip0_1_940">
<rect width="130" height="54" fill="white" transform="translate(0 0.5)"/>
</clipPath>
<clipPath id="clip1_1_940">
<rect width="126" height="38" fill="white" transform="translate(2 16.5)"/>
</clipPath>
</defs>
</svg>
