<svg width="22" height="49" viewBox="0 0 22 49" fill="none" xmlns="http://www.w3.org/2000/svg">
<g clip-path="url(#clip0_1_264)">
<path d="M11 0.741318C11.2969 0.741318 11.5625 0.858794 11.7969 1.09375L20.8672 10.7187C20.9688 10.8241 21.0469 10.9415 21.1016 11.0712C21.1563 11.2089 21.1836 11.3547 21.1836 11.5087C21.1836 11.7193 21.1367 11.9097 21.043 12.0799C20.9492 12.25 20.8242 12.3837 20.668 12.4809C20.5039 12.5781 20.3203 12.6267 20.1172 12.6267C19.8203 12.6267 19.5664 12.5214 19.3555 12.3108L10.3789 2.79515H11.6328L2.65625 12.3108C2.43755 12.5214 2.1836 12.6267 1.89455 12.6267C1.69145 12.6267 1.51175 12.5781 1.35545 12.4809C1.19135 12.3837 1.0625 12.25 0.96875 12.0799C0.875 11.9097 0.828199 11.7193 0.828199 11.5087C0.828199 11.2089 0.933649 10.9497 1.14455 10.7309L10.2148 1.09375C10.3164 0.98033 10.4375 0.891212 10.5781 0.826391C10.7109 0.769676 10.8516 0.741318 11 0.741318Z" fill="white"/>
</g>
<g clip-path="url(#clip1_1_264)">
<path d="M11 48.2587C10.7031 48.2587 10.4375 48.1412 10.2031 47.9063L1.13281 38.2813C1.03125 38.1759 0.953124 38.0585 0.898437 37.9288C0.84375 37.7911 0.816406 37.6453 0.816406 37.4913C0.816406 37.2807 0.863281 37.0903 0.957031 36.9201C1.05078 36.75 1.17578 36.6163 1.33203 36.5191C1.49609 36.4219 1.67969 36.3733 1.88281 36.3733C2.17968 36.3733 2.43359 36.4786 2.64453 36.6892L11.6211 46.2049H10.3672L19.3438 36.6892C19.5625 36.4786 19.8164 36.3733 20.1054 36.3733C20.3085 36.3733 20.4883 36.4219 20.6446 36.5191C20.8086 36.6163 20.9375 36.75 21.0312 36.9201C21.125 37.0903 21.1718 37.2807 21.1718 37.4913C21.1718 37.7911 21.0664 38.0503 20.8554 38.2691L11.7852 47.9063C11.6836 48.0197 11.5625 48.1088 11.4219 48.1736C11.2891 48.2303 11.1484 48.2587 11 48.2587Z" fill="white"/>
</g>
<defs>
<clipPath id="clip0_1_264">
<rect width="21" height="14" fill="white" transform="matrix(-1 0 0 -1 21.5 14)"/>
</clipPath>
<clipPath id="clip1_1_264">
<rect width="21" height="14" fill="white" transform="translate(0.5 35)"/>
</clipPath>
</defs>
</svg>
