<svg width="25" height="25" viewBox="0 0 25 25" fill="none" xmlns="http://www.w3.org/2000/svg">
<path d="M12.8332 13.8C12.7032 13.8 12.5732 13.77 12.4532 13.7L3.62323 8.59002C3.26323 8.38002 3.14321 7.91999 3.35321 7.55999C3.56321 7.19999 4.0132 7.07997 4.3832 7.28997L12.8332 12.18L21.2332 7.32C21.5932 7.11 22.0532 7.24002 22.2632 7.59002C22.4732 7.95002 22.3432 8.40999 21.9932 8.61999L13.2232 13.7C13.0932 13.76 12.9632 13.8 12.8332 13.8Z" fill="white"/>
<path d="M12.8334 22.86C12.4234 22.86 12.0834 22.52 12.0834 22.11V13.04C12.0834 12.63 12.4234 12.29 12.8334 12.29C13.2434 12.29 13.5834 12.63 13.5834 13.04V22.11C13.5834 22.52 13.2434 22.86 12.8334 22.86Z" fill="white"/>
<path d="M12.8333 23.25C11.9233 23.25 11.0532 23.04 10.3932 22.67L5.05325 19.71C3.60325 18.91 2.46326 16.98 2.46326 15.32V9.65997C2.46326 7.99997 3.60325 6.08001 5.05325 5.27001L10.3932 2.30999C11.7532 1.54999 13.8932 1.54999 15.2632 2.30999L20.6032 5.27001C22.0532 6.07001 23.1932 7.99997 23.1932 9.65997V13.32C23.1932 13.73 22.8532 14.07 22.4432 14.07C22.0332 14.07 21.6932 13.73 21.6932 13.32V9.65997C21.6932 8.55997 20.8432 7.12002 19.8832 6.59002L14.5432 3.63C13.6332 3.12 12.0432 3.12 11.1332 3.63L5.79324 6.59002C4.82324 7.13002 3.98325 8.55997 3.98325 9.65997V15.32C3.98325 16.42 4.83324 17.86 5.79324 18.39L11.1332 21.35C12.0132 21.84 13.6732 21.84 14.5432 21.35C14.9032 21.15 15.3633 21.28 15.5633 21.64C15.7633 22 15.6333 22.46 15.2733 22.66C14.6133 23.04 13.7433 23.25 12.8333 23.25Z" fill="white"/>
<path d="M20.0334 22.65C17.8534 22.65 16.0834 20.88 16.0834 18.7C16.0834 16.52 17.8534 14.75 20.0334 14.75C22.2134 14.75 23.9834 16.52 23.9834 18.7C23.9834 20.88 22.2134 22.65 20.0334 22.65ZM20.0334 16.25C18.6834 16.25 17.5834 17.35 17.5834 18.7C17.5834 20.05 18.6834 21.15 20.0334 21.15C21.3834 21.15 22.4834 20.05 22.4834 18.7C22.4834 17.35 21.3834 16.25 20.0334 16.25Z" fill="white"/>
<path d="M23.8333 23.25C23.6433 23.25 23.4533 23.18 23.3033 23.03L22.3033 22.03C22.0133 21.74 22.0133 21.2599 22.3033 20.9699C22.5933 20.6799 23.0733 20.6799 23.3633 20.9699L24.3633 21.9699C24.6533 22.2599 24.6533 22.74 24.3633 23.03C24.2133 23.18 24.0233 23.25 23.8333 23.25Z" fill="white"/>
</svg>
