<svg width="24" height="25" viewBox="0 0 24 25" fill="none" xmlns="http://www.w3.org/2000/svg">
<path d="M1.48962 10.4594C1.48962 9.29271 1.70837 8.19531 2.14587 7.16719C2.59067 6.13906 3.20317 5.23855 3.98337 4.46563C4.76358 3.68543 5.66411 3.07656 6.68494 2.63906C7.71305 2.19427 8.81046 1.97188 9.97712 1.97188C11.1438 1.97188 12.2375 2.19427 13.2584 2.63906C14.2865 3.07656 15.1907 3.68543 15.9709 4.46563C16.7511 5.23855 17.3599 6.13906 17.7974 7.16719C18.2422 8.19531 18.4646 9.29271 18.4646 10.4594C18.4646 11.4583 18.2969 12.4099 17.9615 13.3141C17.6334 14.2182 17.1777 15.0276 16.5943 15.7422L22.2599 21.4515C22.362 21.5464 22.4387 21.6557 22.4897 21.7797C22.5407 21.9037 22.5662 22.0386 22.5662 22.1843C22.5662 22.3739 22.5225 22.549 22.435 22.7094C22.3475 22.8771 22.2235 23.0083 22.0631 23.1032C21.91 23.1979 21.7313 23.2453 21.5271 23.2453C21.3812 23.2453 21.2428 23.2162 21.1115 23.1578C20.9876 23.1067 20.8745 23.0339 20.7724 22.939L15.074 17.2187C14.3667 17.7584 13.5792 18.1813 12.7115 18.4875C11.8438 18.7938 10.9323 18.9469 9.97712 18.9469C8.81046 18.9469 7.71305 18.7282 6.68494 18.2906C5.66411 17.8458 4.76358 17.2333 3.98337 16.4531C3.20317 15.6729 2.59067 14.7724 2.14587 13.7516C1.70837 12.7234 1.48962 11.6261 1.48962 10.4594ZM2.9115 10.4594C2.9115 11.4292 3.09379 12.3443 3.45837 13.2047C3.82296 14.0578 4.32973 14.8089 4.97869 15.4578C5.62765 16.0995 6.37869 16.6062 7.23181 16.9781C8.08494 17.3427 9.00005 17.525 9.97712 17.525C10.9542 17.525 11.8693 17.3427 12.7224 16.9781C13.5756 16.6062 14.323 16.0995 14.9646 15.4578C15.6136 14.8089 16.1204 14.0578 16.4849 13.2047C16.8567 12.3443 17.0428 11.4292 17.0428 10.4594C17.0428 9.48229 16.8567 8.56719 16.4849 7.71407C16.1204 6.86095 15.6136 6.10989 14.9646 5.46095C14.323 4.81199 13.5756 4.30522 12.7224 3.94063C11.8693 3.56875 10.9542 3.38282 9.97712 3.38282C9.00005 3.38282 8.08494 3.56875 7.23181 3.94063C6.37869 4.30522 5.62765 4.81199 4.97869 5.46095C4.32973 6.10989 3.82296 6.86095 3.45837 7.71407C3.09379 8.56719 2.9115 9.48229 2.9115 10.4594Z" fill="white"/>
</svg>
