<svg width="32" height="32" viewBox="0 0 32 32" fill="none" xmlns="http://www.w3.org/2000/svg">
<path d="M12.4267 17.7067H16.5467V27.3067C16.5467 28.72 18.3067 29.3867 19.24 28.32L29.3333 16.8534C30.2133 15.8534 29.5067 14.2934 28.1733 14.2934H24.0533V4.69335C24.0533 3.28002 22.2933 2.61335 21.36 3.68002L11.2667 15.1467C10.4 16.1467 11.1067 17.7067 12.4267 17.7067Z" fill="#292D32"/>
<path d="M11.3333 6.33331H2C1.45333 6.33331 1 5.87998 1 5.33331C1 4.78665 1.45333 4.33331 2 4.33331H11.3333C11.88 4.33331 12.3333 4.78665 12.3333 5.33331C12.3333 5.87998 11.88 6.33331 11.3333 6.33331Z" fill="#292D32"/>
<path d="M10 27.6667H2C1.45333 27.6667 1 27.2134 1 26.6667C1 26.12 1.45333 25.6667 2 25.6667H10C10.5467 25.6667 11 26.12 11 26.6667C11 27.2134 10.5467 27.6667 10 27.6667Z" fill="#292D32"/>
<path d="M6 17H2C1.45333 17 1 16.5467 1 16C1 15.4533 1.45333 15 2 15H6C6.54667 15 7 15.4533 7 16C7 16.5467 6.54667 17 6 17Z" fill="#292D32"/>
</svg>
