<svg width="25" height="25" viewBox="0 0 25 25" fill="none" xmlns="http://www.w3.org/2000/svg">
<path d="M2.53333 2.5H4.27333C5.35333 2.5 6.20333 3.43 6.11333 4.5L5.28333 14.46C5.14333 16.09 6.43332 17.49 8.07332 17.49H18.7233C20.1633 17.49 21.4233 16.31 21.5333 14.88L22.0733 7.38C22.1933 5.72 20.9333 4.37 19.2633 4.37H6.35333" stroke="white" stroke-width="1.5" stroke-miterlimit="10" stroke-linecap="round" stroke-linejoin="round"/>
<path d="M16.7833 22.5C17.4737 22.5 18.0333 21.9404 18.0333 21.25C18.0333 20.5596 17.4737 20 16.7833 20C16.093 20 15.5333 20.5596 15.5333 21.25C15.5333 21.9404 16.093 22.5 16.7833 22.5Z" stroke="white" stroke-width="1.5" stroke-miterlimit="10" stroke-linecap="round" stroke-linejoin="round"/>
<path d="M8.78333 22.5C9.47368 22.5 10.0333 21.9404 10.0333 21.25C10.0333 20.5596 9.47368 20 8.78333 20C8.09297 20 7.53333 20.5596 7.53333 21.25C7.53333 21.9404 8.09297 22.5 8.78333 22.5Z" stroke="white" stroke-width="1.5" stroke-miterlimit="10" stroke-linecap="round" stroke-linejoin="round"/>
<path d="M9.53333 8.5H21.5333" stroke="white" stroke-width="1.5" stroke-miterlimit="10" stroke-linecap="round" stroke-linejoin="round"/>
</svg>
