<svg width="22" height="22" viewBox="0 0 22 22" fill="none" xmlns="http://www.w3.org/2000/svg">
<path d="M20.625 16.2189C20.6425 16.8751 20.4675 17.4964 20.1525 18.0302C19.9775 18.3452 19.7412 18.6339 19.4787 18.8702C18.875 19.4302 18.0787 19.7714 17.195 19.7977C15.9175 19.8239 14.7887 19.1677 14.1675 18.1614C13.835 17.6452 13.6337 17.0239 13.625 16.3677C13.5987 15.2652 14.0887 14.2677 14.8762 13.6114C15.4712 13.1214 16.2237 12.8152 17.0462 12.7977C18.98 12.7539 20.5812 14.2851 20.625 16.2189Z" stroke="#0F770D" stroke-width="1.5" stroke-miterlimit="10" stroke-linecap="round" stroke-linejoin="round"/>
<path d="M15.76 16.3239L16.6438 17.1639L18.4725 15.3964" stroke="#0F770D" stroke-width="1.5" stroke-linecap="round" stroke-linejoin="round"/>
<path d="M3.27376 7.05762L11 11.5289L18.6737 7.08384" stroke="#0F770D" stroke-width="1.5" stroke-linecap="round" stroke-linejoin="round"/>
<path d="M11 19.4564V11.5201" stroke="#0F770D" stroke-width="1.5" stroke-linecap="round" stroke-linejoin="round"/>
<path d="M19.4087 8.57136V13.5239C19.4087 13.5676 19.4088 13.6026 19.4 13.6463C18.7875 13.1126 18 12.7976 17.125 12.7976C16.3025 12.7976 15.5412 13.0864 14.9375 13.5676C14.1325 14.2064 13.625 15.1951 13.625 16.2976C13.625 16.9539 13.8087 17.5751 14.1325 18.1001C14.2112 18.2401 14.3075 18.3714 14.4125 18.4939L12.8113 19.3776C11.8138 19.9376 10.1862 19.9376 9.18874 19.3776L4.51625 16.7876C3.4575 16.2014 2.59126 14.7314 2.59126 13.5239V8.57136C2.59126 7.36386 3.4575 5.89388 4.51625 5.30763L9.18874 2.71761C10.1862 2.15761 11.8138 2.15761 12.8113 2.71761L17.4838 5.30763C18.5425 5.89388 19.4087 7.36386 19.4087 8.57136Z" stroke="#0F770D" stroke-width="1.5" stroke-linecap="round" stroke-linejoin="round"/>
</svg>
